# xmcd
#
# Track frame offsets:
#	150
#	34253
#	49881
#	69184
#	91337
#	97715
#	115218
#	134771
#	156599
#	192377
#	214405
#	244308
#	293186
#
# Disc length: 4432 seconds
#
# Revision: 1
# Processed by: cddbd v1.5.2PL0 Copyright (c) Steve Scherf et al.
# Submitted via: audiograbber 1.82.02
#
DISCID=c6114e0d
DTITLE=Marc Broussard - Live @ Okinawa, Blues, Jazz, Old School
DYEAR=2007
DGENRE=Blues
TTITLE0=Instrumental Intro Then , Don't Change Horses Midstream
TTITLE1=Singing The Doo Da Wop
TTITLE2=You Can Leave Your Hat On
TTITLE3=Hard Knocks
TTITLE4=We Be Doing It (Short)
TTITLE5=Rock Steady
TTITLE6=Slow Down, Relax
TTITLE7=From The Begining
TTITLE8=Known Only As Man
TTITLE9=Try Me
TTITLE10=Steam Roller Baby
TTITLE11=Come Around
TTITLE12=Take Me Home
EXTD=
EXTT0=
EXTT1=
EXTT2=
EXTT3=
EXTT4=
EXTT5=
EXTT6=
EXTT7=
EXTT8=
EXTT9=
EXTT10=
EXTT11=
EXTT12=
PLAYORDER=
